<svg id="Camada_1" data-name="Camada 1" xmlns="http://www.w3.org/2000/svg" viewBox="0 0 444 471"><defs><style>.cls-1{fill:#fff;}</style></defs><path class="cls-1" d="M519,661.89H75v-471H519ZM206.69,561.12c-4.08-7.15-7.84-13.82-11.73-20.41-.28-.47-1.56-.64-2.24-.43-4.9,1.48-9.77,3.11-14.65,4.68-1.76.57-3.53,1.11-5.29,1.67a78,78,0,0,1,7.27-5.56,3.08,3.08,0,0,0,1.18-2.37c-1.4-5.87-3-11.7-4.55-17.69a56.1,56.1,0,0,1-6.59.57,44,44,0,0,1-6-1l.1-.84c.77-.14,1.53-.31,2.31-.42a75.21,75.21,0,0,0,29.13-10.2c15-9,26-22.16,35.09-37.37,2.38-4,4.54-8.14,6.8-12.21-5.33,25.7-20.4,44.15-39.69,59.46,1.44,2,2.7,3.73,3.93,5.47,5.94,8.4,11.33,17.14,14,27.39.55,2.09,1.28,2.82,3.39,2.83,13.89.13,27.77.43,41.66.67.75,0,1.51-.08,2.74-.14l-14.33-19.42-21.78,10.43a23.08,23.08,0,0,1,5.47-5.15c2.34-1.5,2.41-3.14,1.46-5.61-2-5.09-3.79-10.26-5.41-15.49-.75-2.42-1.57-3.19-4.14-2.66-3.12.65-6.4.42-9.61.49a20,20,0,0,1-2.86-.36c19-4.34,32.75-16,43.19-32.84a44.51,44.51,0,0,0-18.49-6.92,51.66,51.66,0,0,1,10.91-.8c8.34.47,16,4,23.83,6.56a164.34,164.34,0,0,0,20.52,5.29,26.45,26.45,0,0,0,15.87-2.46c-8.56-4.69-11.33-13-12.43-22.33a51.59,51.59,0,0,0,15.95,15.41c7.39,4.65,14.86,9.14,22.33,13.66a4.06,4.06,0,0,0,2.28.54c7.14-.48,14.28-1,21.41-1.62a46.3,46.3,0,0,0,5.53-1.12c-5.59,5.43-12.42,8.05-19.18,10.35,3.93,5.08,7.69,10,11.57,14.86a3.39,3.39,0,0,0,2.5,1c2.63-.15,5.24-.56,7.87-.86l.3.68-7.57,4.17C364.47,530,370.14,539,376,547.85a4.51,4.51,0,0,0,3.28,1.7c12.44.31,24.9.47,37.35.65.73,0,1.46-.12,2.51-.21-4.61-5.94-8.94-11.51-13.26-17.09-4.47-5.77-4.46-5.77-11.05-2.81-3.66,1.65-7.32,3.28-11.63,5.21a45.17,45.17,0,0,0,2.25-4.77,5.22,5.22,0,0,0,.15-3.14,106.06,106.06,0,0,1-6.64-30.13c-.68-9.35-.8-18.74-1.17-28.12l.76-.06c1.18,9.9,2.29,19.81,5.83,29.42,4-2.74,8-5,11.47-7.93,6.05-5,7-12.54,2.18-18.86S387.79,459.17,381,454.92c-1.42-.88-1.78-1.64-1.33-3.35,2.35-9,4.55-18,6.86-26.94a3.49,3.49,0,0,0-1.2-4.12c-4.53-3.94-5.78-9.44-6.27-15.38.39,0,.52,0,.55.06.24.39.48.8.7,1.21,4.09,7.69,9.63,13.63,17.61,16.74a4.15,4.15,0,0,1,1.88,2.41q2.56,7.8,4.84,15.71c.48,1.65,1.19,2.19,2.86,2,4.45-.47,8.93-.71,13.39-1.06s8.69-.7,13-1v-35.3l-.38-.05-6.61,26.45c-4.53-.54-8.8-.95-13-1.65-.8-.13-1.7-1.24-2.11-2.14-1.61-3.49-3-7.12-4.58-10.61a3,3,0,0,0-2.08-1.6c-7.25-.26-12.87-3.88-17.33-9.58-7.17-9.17-9.89-19.84-8.69-31.64.24-2.38.72-4.73,1.1-7.09l-.66-.54c-3,3.37-6.68,6.31-8.65,10.25-2.19,4.34-5.4,6.28-9.23,7.88a50.05,50.05,0,0,1-6.8,2.65c-10.07,2.52-20.19,4.88-28.92,7,13,.29,27.66,2,40.77-5.38,1.63,4.8,3.06,9.56,4.88,14.14,1.13,2.87,2.91,5.45,4.31,8.2,2.49,4.88,2.47,4.95-1.61,8.24-1.21,1-2.47,1.89-3.76,2.75-8.71,5.83-18.41,8.76-28.41,10.73-4.45.88-8.93,1.55-13.4,2.31,17.85,2.14,34.89.35,50.26-12-.5,7-.35,13.31-6.47,17.08-1.85,1.14-3.54,2.58-5.39,3.74-10.74,6.7-22.56,10-34.71,12.26-1.41.26-2.83.46-4.25.71s-2.6.47-3.91.71c16.54,1.32,32.63.41,46.85-10.08.09.37.21.59.15.69-5.4,9.1-10.72,18.31-19.38,24.45-7.72,5.48-16.17,9.39-25.56,6.63a45.29,45.29,0,0,1-26-19.12c-7.7-11.92-7.86-24.95-4.17-38.26,4.54-16.39,13.49-30.09,23.87-42.85l3-3.66c-.52-.1-.73-.22-.85-.15-1.35.72-2.72,1.43-4,2.23-15.67,9.48-27.77,22.31-33.87,40.74-1.48,4.47-1.47,4.24-5.94,4.87-5.19.74-10.32,2-15.54,3,5.87.69,11.44,1.28,17,2.07a2.61,2.61,0,0,1,1.7,1.86c-.13,4.44-.49,8.87-.79,13.52-7.55,1.11-15.06,2.72-22.15,6,7,.23,14,.26,20.95.21,1.71,0,2.27.85,2.57,2.51.53,3,1.2,5.94,2,8.85s1.89,6,2.82,8.89c-6.92-1.27-13.65-3-20.46-3.61s-13.61-.14-21-.14c10.37-13.44,9.6-31.82,4.7-44.7-.33,1-.62,1.91-.9,2.79-6.76,20.82-18.57,37.29-36.78,48.32-2.92,1.77-5.73,2-8.65.21-4.61-2.77-7.53-7.09-10.2-12.37a43.54,43.54,0,0,0,21.25-1.21,59.15,59.15,0,0,1-21.52-5.51c-.84-.41-2.12-1.1-2.19-1.79-.39-3.68-.47-7.4-.67-11.37,12,4.51,26.63,5.33,33.22,2-.44-.07-.78-.14-1.13-.17a77.76,77.76,0,0,1-28.73-8.79c-.77-.41-1.84-1.63-1.72-2.27.6-3.3,1.54-6.53,2.49-10.3,11.26,9.74,23.61,10.89,36.4,8.13-5.46-1.83-11.26-3.43-16.8-5.72a32,32,0,0,1-14.24-11.73,15.8,15.8,0,0,1,1.18-1.42,25.15,25.15,0,0,1,15.76-7.22,225.36,225.36,0,0,1,24.38.21c8.93.45,18,1.08,26-3.57A194.93,194.93,0,0,0,289.16,386c9.62-7.43,18.65-15.73,28.26-23.18,14.3-11.06,30.49-15,48.05-13.08,14.66,1.59,28.49,6.43,42.17,11.89.29.11.51.44,1.31,1.13a29.86,29.86,0,0,1-4.29,3.4c-2.07,1.09-4.39,1.63-6.5,2.65-3.27,1.58-4.35,4.09-3.79,7,2.9,0,5.63-.14,8.35,0,2.4.15,4.78.7,7.19,1,3.93.44,7.59.09,9.55-4.63a36.66,36.66,0,0,1,14.76,20.09c2.19-9.21-2-16.35-6.25-23.56l8.52,7.7,6.88-5.55-2.93-6c5.79-.66,11.2-1.25,16.61-1.89,9.85-1.16,19.19-3.91,27.15-10.48,6.21-5.12,9.79-17,7.52-24.18-6.3,9.82-15,15.51-26.1,17.15-6.74,1-13.5,1.85-20.24,2.81-4.3.61-8.59,1.3-12.88,2l-.17,1.29c1.06.39,2.18,1.23,3.18,1.1,10.57-1.43,21.14-2.83,31.66-4.62,6.26-1.07,12.55-2.46,17.64-7,1.09-1,2.12-2,3.18-3.07a17.93,17.93,0,0,1-12.34,11.38c-6.92,1.87-13.94,3.4-21,4.63-6.32,1.1-12.73,1.58-19.34,2.37l1.24,3-.56.46-10.06-12-9.4,6.75,5,4.55-.42.64c-5.18-1.79-10.37-3.54-15.53-5.39C390,348.78,374.39,343,357.86,341.21c-9.87-1-19.7-.93-29.09,3.22-8,3.52-14.72,9-21.11,15-9.18,8.63-18.09,17.6-27.55,25.87-9.05,7.9-19.48,12.51-31.56,10.84-7.45-1-14.88-2.28-22.28-3.67-13.26-2.49-25.52-.7-36.15,8.82a3,3,0,0,1-1.9.82c-11.82-.82-21.83,4.12-31.27,10.93-3.92,2.84-7.74,5.83-11.76,8.51a38.19,38.19,0,0,1-18.37,6.68c-6,.46-10.31-3.92-10.49-10.29a14.42,14.42,0,0,1,4.86-11.31c3.77-3.44,7.76-6.93,12.21-9.14,9.47-4.7,19.24-8.75,29-12.76,14.27-5.86,28.72-11.29,42-19.6,10.69-6.7,20.27-14.75,26.77-26.21,2.29-4,4-8.46,6.06-12.91.87,0,2,.15,3.18.15,5.27,0,8.38-2.07,9.81-7.42A92.57,92.57,0,0,0,253,303.43c.38-4.11-.25-8.32-.43-12.49l-.84-.1c-2.61,6-7.43,9.32-12.55,12.38a119.09,119.09,0,0,0-10.34,6.61c-4,3-4.65,6.33-2.92,11.25,1.24,3.52,3.78,4.83,7.8,5.05-2.63,3.83-4.72,7.36-7.25,10.49-8.59,10.65-19.62,17.78-31.65,22.95-14.34,6.17-29,11.55-43.5,17.23-10.51,4.11-21,8.38-30.37,15s-16.41,15-18.76,27c-2.49,12.66,4.36,23.29,16.34,25.49a46.2,46.2,0,0,0,19-.54c11.39-2.61,21.11-8.65,30-16.38a52.49,52.49,0,0,1,6.07-4l.51.77c-.34.86-.66,1.73-1,2.59a74.65,74.65,0,0,0-5.88,26.46c-.39,14.35,3.33,27,14,36.66,1.46,1.31,3,2.45,4.57,3.67l-.25.85c-2.73-.59-5.66-.72-8.14-1.89s-4.73-3.45-7.13-5.28c-4,18.75-13.72,34.07-26.87,47.14a6,6,0,0,0,.65.77c9.06,7.33,16.93,15.8,22.6,26.41a2.71,2.71,0,0,0,2.11,1.2C181.18,562.26,193.61,561.7,206.69,561.12ZM422.45,386c-1.64,2.76-2.92,4.84-4.11,7a1.81,1.81,0,0,0,0,1.51c1.92,2.73,3.92,5.4,5.9,8.09l.43-.28C424,397.11,423.27,391.94,422.45,386Z" transform="translate(-75 -190.89)"/><path class="cls-1" d="M206.69,561.12c-13.08.58-25.51,1.14-37.94,1.61a2.71,2.71,0,0,1-2.11-1.2C161,550.92,153.1,542.45,144,535.12a6,6,0,0,1-.65-.77c13.15-13.07,22.85-28.39,26.87-47.14,2.4,1.83,4.55,4.06,7.13,5.28s5.41,1.3,8.14,1.89l.25-.85c-1.53-1.22-3.11-2.36-4.57-3.67-10.69-9.62-14.41-22.31-14-36.66a74.65,74.65,0,0,1,5.88-26.46c.35-.86.67-1.73,1-2.59l-.51-.77a52.49,52.49,0,0,0-6.07,4c-8.93,7.73-18.65,13.77-30,16.38a46.2,46.2,0,0,1-19,.54c-12-2.2-18.83-12.83-16.34-25.49,2.35-12,9.39-20.47,18.76-27s19.86-10.86,30.37-15c14.52-5.68,29.16-11.06,43.5-17.23,12-5.17,23.06-12.3,31.65-22.95,2.53-3.13,4.62-6.66,7.25-10.49-4-.22-6.56-1.53-7.8-5.05-1.73-4.92-1.12-8.21,2.92-11.25a119.09,119.09,0,0,1,10.34-6.61c5.12-3.06,9.94-6.41,12.55-12.38l.84.1c.18,4.17.81,8.38.43,12.49a92.57,92.57,0,0,1-2.79,15.32c-1.43,5.35-4.54,7.39-9.81,7.42-1.15,0-2.31-.11-3.18-.15-2.07,4.45-3.77,8.87-6.06,12.91-6.5,11.46-16.08,19.51-26.77,26.21-13.25,8.31-27.7,13.74-42,19.6-9.76,4-19.53,8.06-29,12.76-4.45,2.21-8.44,5.7-12.21,9.14A14.42,14.42,0,0,0,116.33,418c.18,6.37,4.5,10.75,10.49,10.29a38.19,38.19,0,0,0,18.37-6.68c4-2.68,7.84-5.67,11.76-8.51,9.44-6.81,19.45-11.75,31.27-10.93a3,3,0,0,0,1.9-.82c10.63-9.52,22.89-11.31,36.15-8.82,7.4,1.39,14.83,2.65,22.28,3.67,12.08,1.67,22.51-2.94,31.56-10.84,9.46-8.27,18.37-17.24,27.55-25.87,6.39-6,13.14-11.49,21.11-15,9.39-4.15,19.22-4.27,29.09-3.22,16.53,1.74,32.1,7.57,47.71,13.15,5.16,1.85,10.35,3.6,15.53,5.39l.42-.64-5-4.55,9.4-6.75,10.06,12,.56-.46-1.24-3c6.61-.79,13-1.27,19.34-2.37,7-1.23,14.07-2.76,21-4.63A17.93,17.93,0,0,0,488,338c-1.06,1-2.09,2.09-3.18,3.07-5.09,4.57-11.38,6-17.64,7-10.52,1.79-21.09,3.19-31.66,4.62-1,.13-2.12-.71-3.18-1.1l.17-1.29c4.29-.66,8.58-1.35,12.88-2,6.74-1,13.5-1.81,20.24-2.81,11.07-1.64,19.8-7.33,26.1-17.15,2.27,7.18-1.31,19.06-7.52,24.18-8,6.57-17.3,9.32-27.15,10.48-5.41.64-10.82,1.23-16.61,1.89l2.93,6-6.88,5.55-8.52-7.7c4.22,7.21,8.44,14.35,6.25,23.56a36.66,36.66,0,0,0-14.76-20.09c-2,4.72-5.62,5.07-9.55,4.63-2.41-.28-4.79-.83-7.19-1-2.72-.18-5.45,0-8.35,0-.56-2.92.52-5.43,3.79-7,2.11-1,4.43-1.56,6.5-2.65a29.86,29.86,0,0,0,4.29-3.4c-.8-.69-1-1-1.31-1.13-13.68-5.46-27.51-10.3-42.17-11.89-17.56-1.9-33.75,2-48.05,13.08-9.61,7.45-18.64,15.75-28.26,23.18a194.93,194.93,0,0,1-21.87,14.87c-8.07,4.65-17.11,4-26,3.57a225.36,225.36,0,0,0-24.38-.21,25.15,25.15,0,0,0-15.76,7.22,15.8,15.8,0,0,0-1.18,1.42,32,32,0,0,0,14.24,11.73c5.54,2.29,11.34,3.89,16.8,5.72-12.79,2.76-25.14,1.61-36.4-8.13-.95,3.77-1.89,7-2.49,10.3-.12.64.95,1.86,1.72,2.27a77.76,77.76,0,0,0,28.73,8.79c.35,0,.69.1,1.13.17-6.59,3.31-21.19,2.49-33.22-2,.2,4,.28,7.69.67,11.37.07.69,1.35,1.38,2.19,1.79a59.15,59.15,0,0,0,21.52,5.51,43.54,43.54,0,0,1-21.25,1.21c2.67,5.28,5.59,9.6,10.2,12.37,2.92,1.75,5.73,1.56,8.65-.21,18.21-11,30-27.5,36.78-48.32.28-.88.57-1.77.9-2.79,4.9,12.88,5.67,31.26-4.7,44.7,7.34,0,14.19-.48,21,.14s13.54,2.34,20.46,3.61c-.93-2.89-2-5.85-2.82-8.89s-1.47-5.87-2-8.85c-.3-1.66-.86-2.52-2.57-2.51-7,.05-13.94,0-20.95-.21,7.09-3.32,14.6-4.93,22.15-6,.3-4.65.66-9.08.79-13.52a2.61,2.61,0,0,0-1.7-1.86c-5.54-.79-11.11-1.38-17-2.07,5.22-1,10.35-2.25,15.54-3,4.47-.63,4.46-.4,5.94-4.87,6.1-18.43,18.2-31.26,33.87-40.74,1.32-.8,2.69-1.51,4-2.23.12-.07.33,0,.85.15l-3,3.66c-10.38,12.76-19.33,26.46-23.87,42.85-3.69,13.31-3.53,26.34,4.17,38.26a45.29,45.29,0,0,0,26,19.12c9.39,2.76,17.84-1.15,25.56-6.63,8.66-6.14,14-15.35,19.38-24.45.06-.1-.06-.32-.15-.69-14.22,10.49-30.31,11.4-46.85,10.08,1.31-.24,2.61-.49,3.91-.71s2.84-.45,4.25-.71c12.15-2.24,24-5.56,34.71-12.26,1.85-1.16,3.54-2.6,5.39-3.74,6.12-3.77,6-10.12,6.47-17.08-15.37,12.36-32.41,14.15-50.26,12,4.47-.76,8.95-1.43,13.4-2.31,10-2,19.7-4.9,28.41-10.73,1.29-.86,2.55-1.78,3.76-2.75,4.08-3.29,4.1-3.36,1.61-8.24-1.4-2.75-3.18-5.33-4.31-8.2-1.82-4.58-3.25-9.34-4.88-14.14-13.11,7.36-27.75,5.67-40.77,5.38,8.73-2.09,18.85-4.45,28.92-7a50.05,50.05,0,0,0,6.8-2.65c3.83-1.6,7-3.54,9.23-7.88,2-3.94,5.69-6.88,8.65-10.25l.66.54c-.38,2.36-.86,4.71-1.1,7.09-1.2,11.8,1.52,22.47,8.69,31.64,4.46,5.7,10.08,9.32,17.33,9.58a3,3,0,0,1,2.08,1.6c1.61,3.49,3,7.12,4.58,10.61.41.9,1.31,2,2.11,2.14,4.24.7,8.51,1.11,13,1.65l6.61-26.45.38.05v35.3c-4.31.35-8.65.71-13,1s-8.94.59-13.39,1.06c-1.67.18-2.38-.36-2.86-2q-2.28-7.9-4.84-15.71a4.15,4.15,0,0,0-1.88-2.41c-8-3.11-13.52-9.05-17.61-16.74-.22-.41-.46-.82-.7-1.21,0-.05-.16,0-.55-.06.49,5.94,1.74,11.44,6.27,15.38a3.49,3.49,0,0,1,1.2,4.12c-2.31,9-4.51,18-6.86,26.94-.45,1.71-.09,2.47,1.33,3.35,6.84,4.25,12.14,10.39,17.05,16.79s3.87,13.82-2.18,18.86c-3.49,2.92-7.46,5.19-11.47,7.93-3.54-9.61-4.65-19.52-5.83-29.42l-.76.06c.37,9.38.49,18.77,1.17,28.12a106.06,106.06,0,0,0,6.64,30.13,5.22,5.22,0,0,1-.15,3.14,45.17,45.17,0,0,1-2.25,4.77c4.31-1.93,8-3.56,11.63-5.21,6.59-3,6.58-3,11.05,2.81,4.32,5.58,8.65,11.15,13.26,17.09-1.05.09-1.78.22-2.51.21-12.45-.18-24.91-.34-37.35-.65a4.51,4.51,0,0,1-3.28-1.7c-5.83-8.88-11.5-17.88-17.18-26.8l7.57-4.17-.3-.68c-2.63.3-5.24.71-7.87.86a3.39,3.39,0,0,1-2.5-1c-3.88-4.83-7.64-9.78-11.57-14.86,6.76-2.3,13.59-4.92,19.18-10.35a46.3,46.3,0,0,1-5.53,1.12c-7.13.62-14.27,1.14-21.41,1.62a4.06,4.06,0,0,1-2.28-.54c-7.47-4.52-14.94-9-22.33-13.66A51.59,51.59,0,0,1,295.8,464c1.1,9.36,3.87,17.64,12.43,22.33a26.45,26.45,0,0,1-15.87,2.46,164.34,164.34,0,0,1-20.52-5.29c-7.87-2.57-15.49-6.09-23.83-6.56a51.66,51.66,0,0,0-10.91.8,44.51,44.51,0,0,1,18.49,6.92c-10.44,16.87-24.16,28.5-43.19,32.84a20,20,0,0,0,2.86.36c3.21-.07,6.49.16,9.61-.49,2.57-.53,3.39.24,4.14,2.66,1.62,5.23,3.44,10.4,5.41,15.49,1,2.47.88,4.11-1.46,5.61a23.08,23.08,0,0,0-5.47,5.15l21.78-10.43,14.33,19.42c-1.23.06-2,.15-2.74.14-13.89-.24-27.77-.54-41.66-.67-2.11,0-2.84-.74-3.39-2.83-2.69-10.25-8.08-19-14-27.39-1.23-1.74-2.49-3.46-3.93-5.47,19.29-15.31,34.36-33.76,39.69-59.46-2.26,4.07-4.42,8.21-6.8,12.21-9.08,15.21-20.13,28.36-35.09,37.37a75.21,75.21,0,0,1-29.13,10.2c-.78.11-1.54.28-2.31.42l-.1.84a44,44,0,0,0,6,1,56.1,56.1,0,0,0,6.59-.57c1.57,6,3.15,11.82,4.55,17.69a3.08,3.08,0,0,1-1.18,2.37,78,78,0,0,0-7.27,5.56c1.76-.56,3.53-1.1,5.29-1.67,4.88-1.57,9.75-3.2,14.65-4.68.68-.21,2,0,2.24.43C198.85,547.3,202.61,554,206.69,561.12Z" transform="translate(-75 -190.89)"/><path d="M422.45,386c.82,6,1.52,11.15,2.23,16.31l-.43.28c-2-2.69-4-5.36-5.9-8.09a1.81,1.81,0,0,1,0-1.51C419.53,390.8,420.81,388.72,422.45,386Z" transform="translate(-75 -190.89)"/></svg>